<svg width="46" height="20" viewBox="0 0 46 20" fill="none" xmlns="http://www.w3.org/2000/svg">
<path d="M1.56 9.12L2.604 8.52V9.72C2.604 9.504 2.652 9.28 2.748 9.048C2.844 8.808 2.968 8.588 3.12 8.388C3.28 8.18 3.452 8.024 3.636 7.92L3.948 7.74C4.228 7.58 4.472 7.56 4.68 7.68C4.888 7.8 4.992 8.02 4.992 8.34C4.992 8.124 5.04 7.9 5.136 7.668C5.232 7.428 5.356 7.208 5.508 7.008C5.668 6.8 5.84 6.644 6.024 6.54L6.336 6.36C6.616 6.2 6.86 6.18 7.068 6.3C7.276 6.42 7.38 6.64 7.38 6.96V12.24L6.336 12.84V7.56L4.992 8.34V13.62L3.948 14.22V8.94L2.604 9.72V15L1.56 15.6V9.12ZM6.336 7.56V12.84L5.304 12.24V6.96L6.336 7.56ZM3.948 8.94V14.22L2.904 13.62V8.34L3.948 8.94ZM7.068 6.3C6.86 6.18 6.616 6.2 6.336 6.36L6.024 6.54C5.84 6.644 5.668 6.8 5.508 7.008C5.356 7.208 5.232 7.428 5.136 7.668C5.04 7.9 4.992 8.124 4.992 8.34L3.948 7.74C3.948 7.524 3.996 7.3 4.092 7.068C4.188 6.828 4.316 6.608 4.476 6.408C4.636 6.2 4.808 6.044 4.992 5.94L5.304 5.76C5.576 5.6 5.816 5.58 6.024 5.7L7.068 6.3ZM1.56 9.12V15.6L0.516 15V8.52L1.56 9.12ZM4.68 7.68C4.472 7.56 4.228 7.58 3.948 7.74L3.636 7.92C3.452 8.024 3.28 8.18 3.12 8.388C2.968 8.588 2.844 8.808 2.748 9.048C2.652 9.28 2.604 9.504 2.604 9.72L1.56 9.12C1.56 8.904 1.608 8.68 1.704 8.448C1.8 8.208 1.928 7.988 2.088 7.788C2.248 7.58 2.42 7.424 2.604 7.32L2.904 7.14C3.184 6.98 3.428 6.96 3.636 7.08L4.68 7.68ZM2.604 8.52L1.56 9.12L0.516 8.52L1.56 7.92L2.604 8.52ZM10.5024 8.52L12.5784 7.32C12.8504 7.16 13.0904 7.14 13.2984 7.26C13.5064 7.38 13.6104 7.6 13.6104 7.92V12.48C13.6104 12.688 13.5624 12.912 13.4664 13.152C13.3704 13.392 13.2424 13.616 13.0824 13.824C12.9304 14.024 12.7624 14.176 12.5784 14.28L10.5024 15.48C10.2224 15.64 9.97844 15.66 9.77044 15.54C9.56244 15.42 9.45844 15.2 9.45844 14.88V10.32C9.45844 10.104 9.50644 9.88 9.60244 9.648C9.69844 9.408 9.82644 9.188 9.98644 8.988C10.1464 8.78 10.3184 8.624 10.5024 8.52ZM10.5024 14.28L12.5784 13.08V8.52L10.5024 9.72V14.28ZM12.5784 8.52V13.08L11.5344 12.48V7.92L12.5784 8.52ZM12.5784 13.08L10.5024 14.28L9.45844 13.68L11.5344 12.48L12.5784 13.08ZM13.2984 7.26C13.0904 7.14 12.8504 7.16 12.5784 7.32L10.5024 8.52C10.3184 8.624 10.1464 8.78 9.98644 8.988C9.82644 9.188 9.69844 9.408 9.60244 9.648C9.50644 9.88 9.45844 10.104 9.45844 10.32V14.88C9.45844 15.2 9.56244 15.42 9.77044 15.54L8.72644 14.94C8.51844 14.82 8.41444 14.6 8.41444 14.28V9.72C8.41444 9.504 8.46244 9.28 8.55844 9.048C8.65444 8.808 8.78244 8.588 8.94244 8.388C9.10244 8.18 9.27444 8.024 9.45844 7.92L11.5344 6.72C11.8144 6.56 12.0584 6.54 12.2664 6.66L13.2984 7.26ZM16.7368 13.92C16.4568 14.08 16.2128 14.1 16.0048 13.98C15.7968 13.86 15.6928 13.64 15.6928 13.32V9.6L16.7368 9V12.72L18.8128 11.52V7.8L19.8448 7.2V13.68C19.8448 13.888 19.7968 14.112 19.7008 14.352C19.6048 14.592 19.4768 14.812 19.3168 15.012C19.1648 15.22 18.9968 15.376 18.8128 15.48L15.6928 17.28V16.08L18.8128 14.28V11.52C18.8128 11.728 18.7648 11.952 18.6688 12.192C18.5728 12.432 18.4448 12.656 18.2848 12.864C18.1248 13.064 17.9528 13.216 17.7688 13.32L16.7368 13.92ZM18.8128 11.52V14.28L17.7688 13.68V10.92L18.8128 11.52ZM18.8128 14.28L15.6928 16.08L14.6488 15.48L17.7688 13.68L18.8128 14.28ZM15.6928 16.08V17.28L14.6488 16.68V15.48L15.6928 16.08ZM19.8448 7.2L18.8128 7.8L17.7688 7.2L18.8128 6.6L19.8448 7.2ZM18.8128 7.8V11.52L17.7688 10.92V7.2L18.8128 7.8ZM18.8128 11.52L16.7368 12.72L15.6928 12.12L17.7688 10.92L18.8128 11.52ZM16.7368 9L15.6928 9.6L14.6488 9L15.6928 8.4L16.7368 9ZM15.6928 9.6V13.32C15.6928 13.64 15.7968 13.86 16.0048 13.98L14.9608 13.38C14.7528 13.26 14.6488 13.04 14.6488 12.72V9L15.6928 9.6ZM22.9712 8.52L25.0472 7.32C25.3192 7.16 25.5592 7.14 25.7672 7.26C25.9752 7.38 26.0792 7.6 26.0792 7.92V9.72C26.0792 9.928 26.0312 10.152 25.9352 10.392C25.8392 10.632 25.7112 10.856 25.5512 11.064C25.3992 11.264 25.2312 11.416 25.0472 11.52L24.0032 12.12C23.7312 12.28 23.4912 12.3 23.2832 12.18C23.0752 12.06 22.9712 11.84 22.9712 11.52V14.28L26.0792 12.48V13.68L22.9712 15.48C22.6912 15.64 22.4472 15.66 22.2392 15.54C22.0312 15.42 21.9272 15.2 21.9272 14.88V10.32C21.9272 10.104 21.9752 9.88 22.0712 9.648C22.1672 9.408 22.2952 9.188 22.4552 8.988C22.6152 8.78 22.7872 8.624 22.9712 8.52ZM25.0472 8.52L22.9712 9.72V11.52L25.0472 10.32V8.52ZM26.0792 12.48L22.9712 14.28L21.9272 13.68L25.0472 11.88L26.0792 12.48ZM25.0472 8.52V10.32L24.0032 9.72V7.92L25.0472 8.52ZM22.9712 11.52C22.9712 11.84 23.0752 12.06 23.2832 12.18L22.2392 11.58C22.0312 11.46 21.9272 11.24 21.9272 10.92L22.9712 11.52ZM25.0472 10.32L22.9712 11.52L21.9272 10.92L24.0032 9.72L25.0472 10.32ZM25.7672 7.26C25.5592 7.14 25.3192 7.16 25.0472 7.32L22.9712 8.52C22.7872 8.624 22.6152 8.78 22.4552 8.988C22.2952 9.188 22.1672 9.408 22.0712 9.648C21.9752 9.88 21.9272 10.104 21.9272 10.32V14.88C21.9272 15.2 22.0312 15.42 22.2392 15.54L21.1952 14.94C20.9872 14.82 20.8832 14.6 20.8832 14.28V9.72C20.8832 9.504 20.9312 9.28 21.0272 9.048C21.1232 8.808 21.2512 8.588 21.4112 8.388C21.5712 8.18 21.7432 8.024 21.9272 7.92L24.0032 6.72C24.2832 6.56 24.5272 6.54 24.7352 6.66L25.7672 7.26Z" fill="white"/>
<path d="M33.7176 8.84465C33.4826 8.70022 33.365 8.5367 33.3647 8.3541C33.3683 8.1785 33.4927 8.02307 33.7379 7.8878C33.983 7.75253 34.2614 7.68573 34.573 7.68741C34.8884 7.69609 35.1637 7.77265 35.3987 7.91708C35.6337 8.06151 35.7494 8.22152 35.7458 8.39712C35.746 8.57973 35.6236 8.73866 35.3784 8.87393C35.1333 9.00921 34.853 9.0725 34.5375 9.06382C34.2259 9.06214 33.9526 8.98908 33.7176 8.84465ZM28.6744 11.6274C28.4394 11.4829 28.3217 11.3194 28.3215 11.1368C28.3251 10.9612 28.4495 10.8058 28.6946 10.6705C28.9398 10.5352 29.2182 10.4685 29.5298 10.4701C29.8452 10.4788 30.1204 10.5554 30.3555 10.6998C30.5905 10.8442 30.7062 11.0042 30.7026 11.1798C30.7028 11.3624 30.5804 11.5214 30.3352 11.6567C30.0901 11.7919 29.8098 11.8552 29.4943 11.8465C29.1827 11.8449 28.9094 11.7718 28.6744 11.6274ZM35.7516 8.40763C35.7513 8.22503 35.6337 8.06151 35.3987 7.91708C35.1637 7.77265 34.8884 7.69609 34.573 7.68741C34.2614 7.68573 33.983 7.75253 33.7379 7.8878C33.4927 8.02307 33.3683 8.1785 33.3647 8.3541L33.3915 7.16066C33.3912 6.97805 33.5137 6.81912 33.7588 6.68385C34.004 6.54858 34.2824 6.48178 34.5939 6.48346C34.9094 6.49214 35.1866 6.5722 35.4255 6.72363C35.6605 6.86807 35.7762 7.02808 35.7726 7.20368L35.7516 8.40763ZM30.7084 11.1904C30.7081 11.0077 30.5905 10.8442 30.3555 10.6998C30.1204 10.5554 29.8452 10.4788 29.5298 10.4701C29.2182 10.4685 28.9398 10.5352 28.6946 10.6705C28.4495 10.8058 28.3251 10.9612 28.3215 11.1368L28.3483 9.94338C28.348 9.76078 28.4705 9.60184 28.7156 9.46657C28.9608 9.3313 29.2391 9.2645 29.5507 9.26618C29.8662 9.27486 30.1433 9.35492 30.3822 9.50636C30.6173 9.65079 30.733 9.8108 30.7293 9.9864L30.7084 11.1904ZM28.3993 15.1031L29.45 14.5233L30.4797 15.1476C30.6558 15.2514 30.8735 15.3231 31.1329 15.3627C31.3853 15.4062 31.6363 15.4139 31.8858 15.3859C32.1423 15.354 32.3651 15.2859 32.5543 15.1815L39.2786 11.4712C39.5587 11.3166 39.7011 11.1193 39.7057 10.8792C39.7103 10.6391 39.5768 10.4386 39.3053 10.2778L38.2756 9.65357L39.3263 9.07384L40.356 9.69806C40.719 9.9089 40.9549 10.1625 41.0636 10.4589C41.1832 10.7584 41.1773 11.054 41.0459 11.3458C40.9254 11.6407 40.6795 11.8906 40.3083 12.0954L33.584 15.8057C33.3038 15.9603 32.9826 16.0736 32.6202 16.1456C32.2579 16.2176 31.8814 16.2472 31.4906 16.2344C31.1036 16.2287 30.7312 16.1829 30.3732 16.0972C30.0152 16.0114 29.7005 15.8881 29.429 15.7273L28.3993 15.1031ZM39.7057 10.8792C39.7011 11.1193 39.5587 11.3166 39.2786 11.4712L32.5543 15.1815C32.3651 15.2859 32.1423 15.354 31.8858 15.3859C31.6363 15.4139 31.3853 15.4062 31.1329 15.3627C30.8735 15.3231 30.6558 15.2514 30.4797 15.1476L29.45 14.5233L29.471 13.3194L30.5007 13.9436C30.6806 14.0545 30.8949 14.1281 31.1434 14.1646C31.4028 14.2042 31.6608 14.208 31.9173 14.1762C32.1777 14.1513 32.3989 14.0886 32.581 13.9881L39.3053 10.2778C39.5855 10.1232 39.7259 9.92235 39.7267 9.67525L39.7057 10.8792ZM29.45 14.5233L28.3993 15.1031L28.4203 13.8991L29.471 13.3194L29.45 14.5233ZM41.1625 10.9114C41.1608 10.693 41.0911 10.4757 40.9535 10.2592C40.8266 10.046 40.6275 9.85891 40.356 9.69806L39.3263 9.07384L39.3473 7.86989L40.377 8.4941C40.6485 8.65496 40.8476 8.84202 40.9744 9.0553C41.1121 9.27171 41.1818 9.48909 41.1835 9.70744L41.1625 10.9114ZM39.3263 9.07384L38.2756 9.65357L38.2966 8.44962L39.3473 7.86989L39.3263 9.07384Z" fill="white"/>
</svg>
